# File created by Blade
# Date/Time:  Thu Jan 22 16:25:48 2015
# Frame Rate: 120.000 fps
#------------------------------------------------------
:FULLY-SPECIFIED
:DEGREES
1100
root 2.857273 37.325160 7.226642 2.089423 -1.347313 1.732640
RightUpLeg 6.034539 -3.029235 -3.210666
RightLeg -7.411587 -0.000000 0.000000
RightFoot -10.206706 -20.865917 19.871322
RightToeBase 13.603278 -0.000000 -0.000000
LeftUpLeg 4.606872 3.753763 1.492656
LeftLeg -4.472829 -0.000000 0.000000
LeftFoot -6.030328 13.283739 -18.078488
LeftToeBase 9.086690 -0.000000 -0.000000
Spine 1.954989 -4.495497 -1.365217
RightShoulder -4.657831 -7.313939 -30.585759
RightArm 4.976057 31.506136 22.969762
RightForeArm 1.810838 -0.000000 13.145298
RightHand 4.134456 0.000000 1.132388
RightHandThumb1 -24.326973 -0.000000 -32.862282
LeftShoulder -22.496970 29.323003 17.198341
LeftArm 39.315662 -50.849169 -45.240644
LeftForeArm 40.285005 0.000000 3.283993
LeftHand -17.455188 -0.000000 -4.879687
LeftHandThumb1 -26.253704 0.000000 33.147579
Head -12.359149 9.989860 1.101387
1101
root 2.863248 37.324282 7.232201 2.134849 -1.339638 1.743083
RightUpLeg 6.022676 -3.003301 -3.227281
RightLeg -7.457751 -0.000000 0.000000
RightFoot -10.197298 -20.927889 19.861518
RightToeBase 13.568994 -0.000000 -0.000000
LeftUpLeg 4.580483 3.729040 1.465997
LeftLeg -4.500394 -0.000000 0.000000
LeftFoot -6.028485 13.323537 -18.066041
LeftToeBase 9.087545 -0.000000 -0.000000
Spine 1.840711 -4.445739 -1.384319
RightShoulder -4.680999 -7.311842 -30.587514
RightArm 4.966332 31.568128 22.984840
RightForeArm 1.754949 -0.000000 13.081189
RightHand 4.299931 -0.000000 1.044937
RightHandThumb1 -24.326973 -0.000000 -32.862282
LeftShoulder -22.555091 29.285774 17.133349
LeftArm 39.420100 -50.857497 -45.211963
LeftForeArm 40.448821 -0.000000 3.408573
LeftHand -17.406296 -0.000000 -5.060214
LeftHandThumb1 -26.253704 0.000000 33.147579
Head -12.319491 9.861309 1.043250
1102
root 2.868152 37.323548 7.237733 2.180044 -1.331898 1.754964
RightUpLeg 6.009219 -2.997548 -3.243947
RightLeg -7.502031 -0.000000 0.000000
RightFoot -10.186613 -20.936607 19.867345
RightToeBase 13.553224 -0.000000 -0.000000
LeftUpLeg 4.553268 3.719260 1.442456
LeftLeg -4.524773 -0.000000 0.000000
LeftFoot -6.025286 13.337090 -18.078948
LeftToeBase 9.117285 -0.000000 -0.000000
Spine 1.732119 -4.388376 -1.416950
RightShoulder -4.685636 -7.265644 -30.576013
RightArm 4.884293 31.627645 22.975471
RightForeArm 1.693084 -0.000000 13.045162
RightHand 4.497577 -0.000000 1.015601
RightHandThumb1 -24.326973 -0.000000 -32.862282
LeftShoulder -22.649796 29.257809 17.038774
LeftArm 39.621826 -50.841776 -45.199600
LeftForeArm 40.662986 -0.000000 3.494090
LeftHand -17.378555 -0.000000 -5.208399
LeftHandThumb1 -26.253704 0.000000 33.147579
Head -12.286669 9.684490 1.010353
1103
root 2.875179 37.322738 7.242058 2.229562 -1.307650 1.781633
RightUpLeg 5.993933 -3.020404 -3.278956
RightLeg -7.549836 -0.000000 0.000000
RightFoot -10.185165 -20.955645 19.874941
RightToeBase 13.579353 -0.000000 -0.000000
LeftUpLeg 4.512341 3.729285 1.402668
LeftLeg -4.540286 -0.000000 0.000000
LeftFoot -5.998078 13.322647 -18.037450
LeftToeBase 9.129509 -0.000000 -0.000000
Spine 1.612615 -4.337116 -1.449705
RightShoulder -4.672400 -7.168077 -30.605971
RightArm 4.743104 31.640654 22.977445
RightForeArm 1.596593 -0.000000 13.033320
RightHand 4.688735 -0.000000 0.954997
RightHandThumb1 -24.326973 -0.000000 -32.862282
LeftShoulder -22.705852 29.241484 16.956488
LeftArm 39.809676 -50.846113 -45.241642
LeftForeArm 40.958278 -0.000000 3.653998
LeftHand -17.349285 -0.000000 -5.185220
LeftHandThumb1 -26.253704 0.000000 33.147579
Head -12.235710 9.615026 0.970130
